<svg width="902" height="118" viewBox="0 0 902 118" fill="none" xmlns="http://www.w3.org/2000/svg">
<g opacity="0.2">
<g style="mix-blend-mode:darken">
<path d="M655.146 175.623C654.268 175.239 653.335 174.8 652.456 174.306C648.944 172.33 644.553 168.653 639.339 163.164C635.881 159.981 633.356 157.95 631.929 157.182C630.337 156.303 628.746 155.864 627.099 155.864C626.221 155.864 625.288 155.974 624.41 156.194C621.775 156.907 619.854 158.499 618.537 160.804C617.549 162.396 617.11 163.987 617.11 165.579C617.11 166.457 617.274 167.39 617.549 168.323C618.262 170.958 619.689 172.824 621.83 174.032C623.202 174.745 625.123 175.129 627.483 175.129C628.855 175.129 630.282 175.02 631.984 174.8L630.996 183.746C629.13 184.24 627.373 184.515 625.562 184.515C622.653 184.515 619.854 183.746 617.055 182.21C612.664 179.795 609.81 176.008 608.493 170.848C607.944 169.037 607.669 167.281 607.669 165.634C607.669 162.451 608.602 159.322 610.304 156.249C613.048 151.583 616.89 148.565 621.995 147.192C623.806 146.698 625.617 146.424 627.319 146.424C630.502 146.424 633.63 147.302 636.649 149.004C639.558 150.595 643.345 153.834 648.011 158.718C652.182 162.56 655.256 165.03 657.286 166.128C659.427 167.39 661.732 167.994 664.037 167.994C665.3 167.994 666.617 167.83 667.989 167.445C671.776 166.403 674.63 164.207 676.551 160.804C677.814 158.554 678.472 156.249 678.472 153.943C678.472 152.681 678.253 151.419 677.924 150.101C676.936 146.424 674.685 143.57 671.337 141.594C669.306 140.441 667.001 139.838 664.476 139.838C662.61 139.838 660.744 140.112 658.604 140.716L658.494 131.001C660.525 130.452 662.5 130.123 664.586 130.123C668.428 130.123 672.215 131.166 675.893 133.306C681.601 136.49 685.333 141.265 687.09 147.577C687.638 149.772 687.968 151.913 687.968 153.943C687.968 157.95 686.87 161.737 684.729 165.415C681.601 171.068 676.771 174.8 670.349 176.556C668.483 177.05 666.672 177.38 664.915 177.435C662.5 185.283 658.11 192.364 651.853 198.621C641.754 208.775 629.569 213.934 615.353 213.934C601.083 213.934 588.898 208.884 578.744 198.785C568.645 188.686 563.596 176.447 563.596 162.121C563.596 147.851 568.59 135.392 578.58 124.799C585.385 117.444 594.332 111.955 605.199 108.333C599.93 106.083 594.551 102.021 589.118 96.1482C583.574 90.2754 580.83 82.2072 580.83 71.9984C580.83 61.9542 584.452 53.2822 591.643 46.0921C598.833 38.8472 607.614 35.2246 617.823 35.2246C628.032 35.2246 636.759 38.8471 644.004 46.0372C648.011 49.9341 650.755 54.2153 652.292 59.0453L643.455 62.558C642.083 58.9904 639.997 55.6971 636.978 52.7333C631.654 47.4642 625.288 44.8846 617.768 44.8846C610.304 44.8846 603.882 47.5192 598.558 52.7882C593.289 58.0573 590.6 64.479 590.6 72.0532C590.6 79.5726 593.179 86.0492 598.284 91.4829C603.388 96.9715 608.163 100.484 612.554 102.186C616.89 103.887 622.379 104.765 628.91 104.82V114.041L621.007 114.261C605.09 117.225 593.124 123.097 585.111 131.824C577.098 140.551 573.091 150.705 573.091 162.286C573.091 173.922 577.153 183.856 585.44 192.089C593.673 200.322 603.553 204.439 615.244 204.439C626.77 204.439 636.704 200.322 644.937 192.089C649.767 187.04 653.115 181.606 655.146 175.623Z" fill="#A5A4A4"/>
</g>
<g style="mix-blend-mode:darken">
<path d="M38.8371 98.5206L145.591 98.5206L145.591 0L183.627 0L183.627 248.964H145.591V134.361L38.8371 134.361L38.8371 248.964H0.746094L0.746094 0L38.8371 0L38.8371 98.5206Z" fill="#A5A4A4"/>
</g>
<g style="mix-blend-mode:darken">
<path d="M353.064 35.8406L245.487 35.8406V98.9048L350.046 98.9048V134.745L245.487 134.745L245.487 248.964H207.396L207.396 0L353.064 0V35.8406Z" fill="#A5A4A4"/>
</g>
<g style="mix-blend-mode:darken">
<path d="M760.912 0C795.6 0 825.842 3.73225 853.504 24.2597C883.747 47.0374 901.255 83.2623 901.255 124.646C901.255 166.085 884.076 201.926 851.254 225.033C822.164 245.561 794.886 248.909 760.198 248.909H708.715V0L760.912 0ZM746.751 213.123H763.162C781.823 213.123 807.565 211.641 829.245 195.559C846.424 182.496 863.219 158.621 863.219 124.646C863.219 91.8245 847.522 66.0281 829.629 52.9652C807.949 37.2677 781.494 35.7858 763.162 35.7858H746.751V213.123Z" fill="#A5A4A4"/>
</g>
<g style="mix-blend-mode:darken">
<path d="M415.899 141.222L415.899 248.964H376.766L376.766 0L474.847 0C523.202 0 548.998 28.1566 548.998 66.9611C548.998 99.5085 531.709 118.828 510.468 125.579C528.032 130.849 544.717 145.613 544.717 189.083V200.06C544.717 217.13 544.113 238.371 547.901 249.018H514.585C510.358 238.261 510.468 218.996 510.468 195.065V190.071C510.468 156.206 501.686 141.277 460.741 141.277H415.899V141.222ZM415.899 110.541L464.913 110.541C498.942 110.541 513.652 96.8192 513.652 70.1994C513.652 44.8969 498.229 30.6265 467.986 30.6265L415.954 30.6265V110.541H415.899Z" fill="#A5A4A4"/>
</g>
</g>
</svg>
