<svg width="38" height="38" viewBox="0 0 38 38" fill="none" xmlns="http://www.w3.org/2000/svg">
<path d="M16.1791 21.8191C16.9991 22.5991 16.9991 23.8791 16.1791 24.6591C15.3991 25.4391 14.1191 25.4391 13.3391 24.6591C11.4658 22.783 10.4137 20.2402 10.4137 17.5891C10.4137 14.9379 11.4658 12.3951 13.3391 10.5191L20.4191 3.43905C22.2951 1.56581 24.8379 0.513672 27.4891 0.513672C30.1402 0.513672 32.683 1.56581 34.5591 3.43905C36.4323 5.31511 37.4844 7.8579 37.4844 10.5091C37.4844 13.1602 36.4323 15.703 34.5591 17.5791L31.5791 20.5591C31.5991 18.9191 31.3391 17.2791 30.7791 15.7191L31.7191 14.7591C32.2797 14.2044 32.7248 13.5441 33.0286 12.8163C33.3324 12.0885 33.4888 11.3077 33.4888 10.5191C33.4888 9.73041 33.3324 8.94959 33.0286 8.22179C32.7248 7.494 32.2797 6.83368 31.7191 6.27905C31.1644 5.71838 30.5041 5.27327 29.7763 4.96949C29.0485 4.66572 28.2677 4.5093 27.4791 4.5093C26.6904 4.5093 25.9096 4.66572 25.1818 4.96949C24.454 5.27327 23.7937 5.71838 23.2391 6.27905L16.1791 13.3391C15.6184 13.8937 15.1733 14.554 14.8695 15.2818C14.5657 16.0096 14.4093 16.7904 14.4093 17.5791C14.4093 18.3677 14.5657 19.1485 14.8695 19.8763C15.1733 20.6041 15.6184 21.2644 16.1791 21.8191ZM21.8191 13.3391C22.5991 12.5591 23.8791 12.5591 24.6591 13.3391C26.5323 15.2151 27.5844 17.7579 27.5844 20.4091C27.5844 23.0602 26.5323 25.603 24.6591 27.4791L17.5791 34.5591C15.703 36.4323 13.1602 37.4844 10.5091 37.4844C7.8579 37.4844 5.31511 36.4323 3.43905 34.5591C1.56581 32.683 0.513672 30.1402 0.513672 27.4891C0.513672 24.8379 1.56581 22.2951 3.43905 20.4191L6.41905 17.4391C6.39906 19.0791 6.65906 20.7191 7.21906 22.2991L6.27905 23.2391C5.71838 23.7937 5.27327 24.454 4.96949 25.1818C4.66572 25.9096 4.5093 26.6904 4.5093 27.4791C4.5093 28.2677 4.66572 29.0485 4.96949 29.7763C5.27327 30.5041 5.71838 31.1644 6.27905 31.7191C6.83368 32.2797 7.494 32.7248 8.22179 33.0286C8.94959 33.3324 9.73041 33.4888 10.5191 33.4888C11.3077 33.4888 12.0885 33.3324 12.8163 33.0286C13.5441 32.7248 14.2044 32.2797 14.7591 31.7191L21.8191 24.6591C22.3797 24.1044 22.8248 23.4441 23.1286 22.7163C23.4324 21.9885 23.5888 21.2077 23.5888 20.4191C23.5888 19.6304 23.4324 18.8496 23.1286 18.1218C22.8248 17.394 22.3797 16.7337 21.8191 16.1791C21.6248 15.997 21.47 15.7771 21.3641 15.5329C21.2583 15.2886 21.2037 15.0253 21.2037 14.7591C21.2037 14.4929 21.2583 14.2295 21.3641 13.9852C21.47 13.741 21.6248 13.5211 21.8191 13.3391Z" fill="white"/>
</svg>
